<?xml version="1.0" encoding="utf-8"?>
<!-- Generator: Adobe Illustrator 22.0.1, SVG Export Plug-In . SVG Version: 6.00 Build 0)  -->
<svg version="1.1" id="Capa_1" xmlns="http://www.w3.org/2000/svg" xmlns:xlink="http://www.w3.org/1999/xlink" x="0px" y="0px"
	 viewBox="0 0 74.9 74.9" style="enable-background:new 0 0 74.9 74.9;" xml:space="preserve">
<style type="text/css">
	.st0{fill:#969696;}
	.st1{fill:#FAFAFA;}
	.st2{fill:#7EE4B7;}
	.st3{fill:url(#SVGID_1_);}
</style>
<circle class="st0" cx="37.4" cy="37.4" r="37.4"/>
<circle class="st1" cx="37.4" cy="37.4" r="35.8"/>
<path class="st2" d="M53.8,38.3V15.8H20.3v41.9h15.5c1.1,0,2,0.9,2,2s-0.9,2-2,2H18.2c-1.1,0-2-0.9-2-2V13.9c0-1.1,0.9-2,2-2h37.6
	c1.1,0,2,0.9,2,2v24.5c0,1.1-0.9,2-2,2S53.8,39.5,53.8,38.3z"/>
<linearGradient id="SVGID_1_" gradientUnits="userSpaceOnUse" x1="41.0234" y1="-690.5159" x2="62.6594" y2="-690.5159" gradientTransform="matrix(1 0 0 -1 0 -640)">
	<stop  offset="0" style="stop-color:#9A243B"/>
	<stop  offset="0.1648" style="stop-color:#AD2A48"/>
	<stop  offset="0.3585" style="stop-color:#BB2F52"/>
	<stop  offset="0.596" style="stop-color:#C43158"/>
	<stop  offset="0.9996" style="stop-color:#C6325A"/>
</linearGradient>
<path class="st3" d="M62,42.7c-0.7-0.7-1.9-0.6-2.7,0.2L49.2,54.2l-5.1-4.9c-0.7-0.7-1.9-0.7-2.6,0.1c-0.7,0.7-0.7,1.9,0.1,2.7
	l6.5,6.2c0.3,0.3,0.8,0.5,1.3,0.5c0,0,0,0,0.1,0c0.5,0,1-0.2,1.3-0.6l11.4-12.7C62.9,44.6,62.8,43.5,62,42.7z"/>
<path class="st2" d="M46.4,23.5H28.3c-1.1,0-2,0.9-2,2s0.9,2,2,2h18.1c1.1,0,2-0.9,2-2S47.5,23.5,46.4,23.5z"/>
<path class="st2" d="M48.4,36.7c0-1.1-0.9-2-2-2H28.3c-1.1,0-2,0.9-2,2s0.9,2,2,2h18.1C47.5,38.7,48.4,37.8,48.4,36.7z"/>
<path class="st2" d="M28.3,45.4c-1.1,0-2,0.9-2,2s0.9,2,2,2h5.3c1.1,0,2-0.9,2-2s-0.9-2-2-2H28.3z"/>
</svg>
