<?xml version="1.0" encoding="utf-8"?>
<!-- Generator: Adobe Illustrator 22.0.1, SVG Export Plug-In . SVG Version: 6.00 Build 0)  -->
<svg version="1.1" id="Capa_2_1_" xmlns="http://www.w3.org/2000/svg" xmlns:xlink="http://www.w3.org/1999/xlink" x="0px" y="0px"
	 viewBox="0 0 60.3 9" style="enable-background:new 0 0 60.3 9;" xml:space="preserve">
<style type="text/css">
	.st0{fill:#00397B;}
	.st1{fill:#BE0811;}
	.st2{fill:#008F45;}
	.st3{fill:#0086BE;}
</style>
<rect x="27.9" y="0.1" class="st0" width="0.6" height="8.8"/>
<path class="st0" d="M40,2.8c-0.1-0.5-0.4-1-0.7-1.4s-0.8-0.7-1.3-1c-0.5-0.2-1.2-0.3-1.9-0.3H33h-0.6v0.6v7.7v0.5V9h3.8
	c0.5,0,1-0.1,1.6-0.2c0.5-0.1,0.9-0.4,1.3-0.7c0.4-0.4,0.7-0.8,0.9-1.3s0.3-1.2,0.3-2.2C40.3,3.9,40.2,3.4,40,2.8z M39.3,6.5
	c-0.2,0.4-0.4,0.8-0.8,1.1c-0.3,0.3-0.7,0.5-1,0.6c-0.5,0.1-1,0.2-1.4,0.2H33V0.7h3.2c0.7,0,1.3,0.1,1.7,0.3s0.8,0.4,1,0.8
	c0.3,0.3,0.5,0.8,0.6,1.2c0.1,0.5,0.2,1,0.2,1.5C39.6,5.4,39.5,6,39.3,6.5z"/>
<path class="st0" d="M55.6,0l4.1,8.9H59l-1.4-3.1h-4.3l-1.4,3.1h-0.7L55.3,0H55.6z M57.4,5.3l-1.9-4.2l-1.9,4.2H57.4z"/>
<polygon class="st0" points="47.7,0.1 47.7,0.7 43.6,0.7 43.6,4.2 47.6,4.2 47.6,4.8 43.6,4.8 43.6,8.4 47.8,8.4 47.8,8.9 42.9,8.9 
	42.9,0.1 "/>
<path class="st1" d="M0.4,4.7c0-1.9,1.6-3.5,3.5-3.5s3.5,1.6,3.5,3.5S5.8,8.2,3.9,8.2S0.4,6.6,0.4,4.7"/>
<path class="st2" d="M9.4,4.6c0-1.9,1.6-3.5,3.5-3.5s3.5,1.6,3.5,3.5s-1.6,3.5-3.5,3.5S9.4,6.6,9.4,4.6"/>
<path class="st3" d="M17.8,4.7c0-1.9,1.6-3.5,3.5-3.5s3.5,1.6,3.5,3.5s-1.6,3.5-3.5,3.5C19.3,8.2,17.8,6.6,17.8,4.7"/>
</svg>
